<svg xmlns="http://www.w3.org/2000/svg" xmlns:xlink="http://www.w3.org/1999/xlink" aria-hidden="true" role="img" class="iconify iconify--logos" width="35.93" height="32" preserveAspectRatio="xMidYMid meet" viewBox="0 0 256 228"><path fill="#00D8FF" d="M210.483 73.824a171.49 171.49 0 0 0-8.24-2.597c.465-1.9.893-3.777 1.273-5.621c6.238-30.281 2.16-54.676-11.769-62.708c-13.355-7.7-35.196.329-57.254 19.526a171.23 171.23 0 0 0-6.375 5.848a155.866 155.866 0 0 0-4.241-3.917C100.759 3.829 77.587-4.822 63.673 3.233C49.759 11.288 45.738 35.19 51.995 65.608a170.974 170.974 0 0 0 1.892 8.48c-3.28.932-6.445 1.924-9.474 2.98C17.309 83.498 0 98.307 0 113.668c0 15.865 18.582 32.168 46.812 40.386a145.52 145.52 0 0 0 6.921 1.696c-.512 2.107-.982 4.22-1.407 6.327c-6.238 30.281-2.16 54.676 11.769 62.708c13.355 7.7 35.196-.329 57.254-19.526a145.567 145.567 0 0 0 5.342-4.922a168.612 168.612 0 0 0 6.92 6.314c22.058 19.855 43.899 27.884 57.254 20.184c13.929-8.032 18.007-32.427 11.769-62.708a170.974 170.974 0 0 0-1.892-8.48c3.28-.932 6.445-1.924 9.474-2.98c28.23-8.218 46.812-24.521 46.812-40.386c0-15.361-17.309-30.17-45.517-39.844zm-6.365 70.984c-2.686.783-5.511 1.52-8.456 2.214c1.686 7.692 2.798 15.733 3.307 24.007c3.905 22.602 1.387 39.788-6.67 44.436c-8.057 4.648-24.277-1.612-42.716-17.382a156.838 156.838 0 0 1-5.848-5.383a134.382 134.382 0 0 1-7.374 6.805c-18.439 15.77-34.659 22.03-42.716 17.382c-8.057-4.648-10.575-21.834-6.67-44.436c.509-8.274 1.621-16.315 3.307-24.007a145.52 145.52 0 0 1-8.456-2.214C25.751 139.462 12 127.093 12 113.668c0-13.425 13.751-25.794 35.228-33.828a156.838 156.838 0 0 1 8.456-2.214c-1.686-7.692-2.798-15.733-3.307-24.007c-3.905-22.602-1.387-39.788 6.67-44.436c8.057-4.648 24.277 1.612 42.716 17.382a134.382 134.382 0 0 1 7.374-6.805a156.838 156.838 0 0 1 5.848 5.383a156.838 156.838 0 0 1 5.848-5.383a134.382 134.382 0 0 1 7.374 6.805c18.439-15.77 34.659-22.03 42.716-17.382c8.057 4.648 10.575 21.834 6.67 44.436c-.509 8.274-1.621 16.315-3.307 24.007a145.52 145.52 0 0 1 8.456 2.214C230.249 87.874 244 99.243 244 113.668c0 13.425-13.751 25.794-35.228 33.828z"></path><path fill="#00D8FF" d="M128 152.472c-19.66 0-35.595-15.935-35.595-35.595S108.34 81.282 128 81.282s35.595 15.935 35.595 35.595S147.66 152.472 128 152.472zm0-59.19c-13.028 0-23.595 10.567-23.595 23.595S114.972 140.472 128 140.472s23.595-10.567 23.595-23.595S141.028 93.282 128 93.282z"></path><path fill="#00D8FF" d="M128 140.472c-6.514 0-11.797-5.283-11.797-11.797S121.486 116.878 128 116.878s11.797 5.283 11.797 11.797S134.514 140.472 128 140.472zm0-11.797z"></path></svg>
